<svg width="16" height="8" viewBox="0 0 16 8" fill="none" xmlns="http://www.w3.org/2000/svg">
<path d="M1.00006 1.00986C0.999603 0.776404 1.08098 0.550158 1.23006 0.370397C1.31401 0.269224 1.41711 0.185593 1.53346 0.124292C1.64981 0.0629918 1.77711 0.0252272 1.90809 0.0131615C2.03906 0.00109581 2.17114 0.0149662 2.29674 0.0539778C2.42234 0.0929895 2.53901 0.156375 2.64006 0.240507L8.00006 4.71674L13.3701 0.400373C13.4723 0.317377 13.59 0.255397 13.7164 0.217997C13.8427 0.180597 13.9752 0.168513 14.1062 0.18244C14.2373 0.196368 14.3643 0.236031 14.4799 0.299152C14.5955 0.362273 14.6975 0.447606 14.7801 0.550246C14.8711 0.653625 14.9398 0.77469 14.9818 0.905842C15.0237 1.03699 15.0381 1.1754 15.0241 1.31238C15.01 1.44936 14.9677 1.58195 14.8999 1.70183C14.8321 1.82171 14.7402 1.9263 14.6301 2.00902L8.63006 6.83496C8.45113 6.98192 8.22668 7.06226 7.99506 7.06226C7.76343 7.06226 7.53899 6.98192 7.36006 6.83496L1.36006 1.83916C1.23904 1.73893 1.14338 1.6116 1.08083 1.46751C1.01828 1.32343 0.990609 1.16663 1.00006 1.00986Z" fill="#FF0000"/>
</svg>
