<svg width="9" height="15" viewBox="0 0 9 15" fill="none" xmlns="http://www.w3.org/2000/svg">
<path d="M1.99981 14.5545C1.76615 14.555 1.53972 14.4732 1.35981 14.3235C1.25855 14.2391 1.17485 14.1355 1.11349 14.0186C1.05214 13.9017 1.01435 13.7738 1.00227 13.6422C0.990194 13.5106 1.00408 13.3779 1.04312 13.2517C1.08217 13.1255 1.1456 13.0083 1.22981 12.9068L5.70981 7.52145L1.38981 2.12607C1.30674 2.0233 1.24471 1.90504 1.20728 1.77811C1.16985 1.65117 1.15775 1.51805 1.17169 1.3864C1.18563 1.25476 1.22533 1.12717 1.2885 1.01099C1.35168 0.894807 1.43708 0.792313 1.53981 0.7094C1.64327 0.617933 1.76444 0.548941 1.8957 0.506753C2.02696 0.464566 2.16549 0.450094 2.30258 0.464246C2.43967 0.478397 2.57238 0.520867 2.69236 0.588989C2.81234 0.657111 2.91701 0.749416 2.99981 0.860109L7.82981 6.88848C7.97689 7.06825 8.0573 7.29376 8.0573 7.52648C8.0573 7.7592 7.97689 7.9847 7.82981 8.16448L2.82981 14.1928C2.72949 14.3144 2.60206 14.4106 2.45785 14.4734C2.31364 14.5362 2.15671 14.564 1.99981 14.5545Z" fill="#FF0000"/>
</svg>
