<svg width="117" height="30" viewBox="0 0 117 30" fill="none" xmlns="http://www.w3.org/2000/svg">
<path d="M117 29.5275C117 29.5669 116.961 29.6062 116.961 29.6456C116.922 29.8818 116.805 29.9606 116.61 29.9999C116.571 29.9999 116.494 29.9999 116.416 29.9999C114.896 29.9999 113.338 29.9999 111.779 29.9999C110.416 29.9606 109.247 29.4487 108.234 28.5039C107.727 28.0314 107.338 27.4802 106.909 26.8897C104.61 23.6613 102.312 20.433 100.013 17.2046C99.9741 17.1653 99.9741 17.1259 99.9352 17.0865C99.8183 17.0471 99.7014 16.9684 99.6235 17.0078C99.5455 17.0471 99.4676 17.1653 99.3897 17.2834C99.3507 17.3227 99.3897 17.4408 99.3897 17.4802C99.3897 21.4172 99.3897 25.3542 99.3897 29.2913C99.3897 29.9212 99.3118 29.9999 98.6884 29.9999C95.8053 29.9999 92.9222 29.9999 90.0001 29.9999C89.3767 29.9999 89.2988 29.9212 89.2988 29.2913C89.2988 19.8031 89.2988 10.3149 89.2988 0.826646C89.2988 0.747906 89.2988 0.669165 89.2988 0.629795C89.3378 0.314834 89.4547 0.196724 89.7274 0.157354H89.7664C91.5196 0.157354 93.2728 0.157354 95.0261 0.196724C95.7663 0.196724 96.4287 0.551055 97.052 0.944756C98.143 1.65342 99.0391 2.55893 99.8183 3.58256C102 6.53532 104.143 9.48808 106.325 12.4802C106.364 12.5196 106.403 12.5983 106.442 12.6377C106.52 12.6771 106.675 12.7558 106.753 12.7558C106.831 12.7164 106.909 12.5983 106.987 12.4802C107.026 12.4408 106.987 12.3227 106.987 12.2834C106.987 8.50382 106.987 4.72429 106.987 0.905386C106.987 0.866016 106.987 0.826646 106.987 0.787276C107.026 0.354204 106.909 0.196724 107.494 0.0786133C110.221 0.0786133 112.987 0.0786133 115.714 0.0786133C115.753 0.0786133 115.792 0.117983 115.831 0.117983C116.065 0.117983 116.26 0.117983 116.494 0.117983C116.727 0.117983 116.844 0.236094 116.883 0.472315C116.883 0.511685 116.922 0.551055 116.922 0.590425C117 10.1967 117 19.8818 117 29.5275Z" fill="white"/>
<path d="M86.1033 0.0393701C86.6877 0.275591 86.8435 0.472442 86.8435 1.14173C86.8435 7.24411 86.8435 13.3465 86.8435 19.4489C86.8435 21.1418 86.6098 22.7953 85.9864 24.4095C85.2072 26.378 83.9604 27.9528 82.0903 28.9371C80.8825 29.567 79.6358 29.8819 78.2721 29.8819C72.6228 29.8819 66.9735 29.8819 61.3241 29.8819C60.3891 29.8819 59.6878 29.252 59.493 28.3859C59.454 28.189 59.415 27.9528 59.415 27.756C59.415 18.8189 59.415 9.92128 59.415 0.984254C59.415 0.433072 59.6098 0.196851 60.1553 0C62.9215 0 65.6877 0 68.454 0C68.6877 0.0787403 68.9215 0.11811 69.0384 0.354331C69.1163 0.551182 69.1942 0.787403 69.1942 0.984254C69.1942 7.36222 69.1942 13.7008 69.1942 20.0788C69.1942 20.7087 69.389 20.9055 70.0124 20.9055C71.2202 20.9055 72.428 20.9055 73.6747 20.9055C74.1812 20.9055 74.6488 20.9055 75.1552 20.9055C75.8565 20.8662 76.402 20.5118 76.7137 19.8426C76.9475 19.3701 77.0254 18.8977 77.0643 18.3859C77.1033 17.4803 77.1033 16.5748 77.1033 15.7087C77.1033 10.8268 77.1033 5.94489 77.1033 1.06299C77.1033 0.393701 77.2591 0.196851 77.8435 0C80.5708 0.0393701 83.337 0.0393701 86.1033 0.0393701Z" fill="white"/>
<path d="M9.6623 0.0393066C10.0909 0.157417 10.0909 0.196787 10.0909 0.669229C10.0909 3.7401 10.0909 6.81097 10.0909 9.88184C10.0909 10.3149 10.1688 10.3937 10.5974 10.3937C15.2337 10.3937 19.8701 10.3937 24.4674 10.3937C25.2856 10.3937 26.1038 10.3937 26.922 10.3937C26.9999 10.3937 27.1168 10.3937 27.1947 10.3937C27.4285 10.433 27.5454 10.5511 27.5843 10.7874C27.5843 10.8661 27.5843 10.9448 27.5843 11.0236C27.5843 17.1259 27.5843 23.189 27.5843 29.2913C27.5843 29.3701 27.5843 29.4488 27.5843 29.5275C27.5454 29.8031 27.4285 29.9212 27.1558 29.9212C27.1168 29.9212 27.0389 29.9212 26.9999 29.9212C24.1168 29.9212 21.1947 29.9212 18.3116 29.9212C17.8441 29.9212 17.7662 29.8425 17.7662 29.3701C17.7662 28.4252 17.7662 27.4803 17.7662 26.5354C17.7662 24.2519 17.7662 22.0078 17.7662 19.7244C17.7662 19.3307 17.6883 19.2519 17.2986 19.2519C15.0389 19.2519 12.7792 19.2519 10.5194 19.2519C10.1298 19.2519 10.0519 19.3307 10.0519 19.7244C10.0519 22.9134 10.0519 26.063 10.0519 29.252C10.0519 29.3307 10.0519 29.4094 10.0519 29.4882C10.013 29.7638 9.89607 29.8819 9.6623 29.8819C9.58438 29.8819 9.54542 29.8819 9.4675 29.8819C6.54543 29.8819 3.5844 29.8819 0.662335 29.8819C0.233765 29.8819 0.155844 29.8031 0.0779218 29.4094C0.0389609 29.2913 0.0389609 29.2126 0 29.0945C0.0389609 19.5275 0.0389609 9.92121 0.0389609 0.314898C0.116883 0.157417 0.311687 0.0786768 0.467531 0.0393066C3.54544 0.0393066 6.58439 0.0393066 9.6623 0.0393066Z" fill="white"/>
<path d="M117 0.551118C117 0.511748 116.961 0.472378 116.961 0.433008C116.922 0.196787 116.805 0.0786768 116.571 0.0786768C116.338 0.0786768 116.143 0.0786768 115.909 0.0786768C115.87 0.0786768 115.831 0.0393066 115.792 0.0393066C116.182 0.0393066 116.571 0.0393066 117 0.0393066C117 0.196787 117 0.393638 117 0.551118Z" fill="white"/>
<path d="M42.5843 29.8819C38.6103 29.8819 34.6362 29.8819 30.6233 29.8819C30.5453 29.8819 30.5064 29.8819 30.4285 29.8819C30.1168 29.8819 29.9999 29.7244 29.9609 29.4094C29.9609 29.3701 29.9609 29.2913 29.9609 29.252C29.9609 26.7716 29.9609 24.2913 29.9609 21.7716C29.9609 21.6929 29.9609 21.6141 29.9609 21.5354C29.9999 21.2598 30.1168 21.1417 30.3505 21.1023C30.4285 21.1023 30.5453 21.1023 30.6622 21.1023C34.9479 21.1023 39.2336 21.1023 43.5193 21.1023C43.6752 21.1023 43.831 21.1417 43.87 20.9449C43.9479 20.748 43.87 20.5905 43.7531 20.433C40.909 17.874 38.1038 15.3543 35.2596 12.7952C33.896 11.5748 32.5324 10.3543 31.2077 9.13381C30.896 8.85822 30.6622 8.54326 30.4285 8.2283C30.1168 7.79523 29.9999 7.32278 29.9999 6.7716C29.9999 5.39365 29.9999 4.01569 29.9999 2.59837C29.9999 1.18104 30.857 0.196787 32.2596 0.0786768C32.4934 0.0393066 32.7272 0.0393066 32.9609 0.0393066C40.831 0.0393066 48.7011 0.0393066 56.5712 0.0393066C56.6492 0.0393066 56.7271 0.0393066 56.805 0.0393066C57.0777 0.0786768 57.1946 0.196787 57.2336 0.472378C57.2336 0.511748 57.2336 0.551119 57.2336 0.629859C57.2336 2.91333 57.2336 5.15743 57.2336 7.44089C57.2336 8.11019 57.1556 8.18893 56.4933 8.18893C52.3245 8.18893 48.1167 8.18893 43.9479 8.18893C43.6752 8.18893 43.5193 8.26767 43.5583 8.46452C43.5583 8.58263 43.6362 8.74011 43.7141 8.81885C44.6492 9.68499 45.5843 10.5511 46.5193 11.4173C49.2076 13.8976 51.857 16.3385 54.5453 18.8189C55.2466 19.4882 55.8699 20.1968 56.5323 20.9055C56.6881 21.1023 56.844 21.2992 56.9608 21.496C57.1167 21.7323 57.1946 22.0078 57.1946 22.3228C57.1946 23.7795 57.1946 25.2756 57.1946 26.7323C57.1946 27.1653 57.1946 27.5984 57.0388 28.0315C56.6881 29.2126 55.7141 29.9212 54.3894 29.9212C50.4544 29.8819 46.5193 29.8819 42.5843 29.8819Z" fill="white"/>
<path d="M22.7146 8.11024C21.2731 8.11024 19.8315 8.11024 18.39 8.11024C18.3121 8.11024 18.2341 8.11024 18.1562 8.11024C17.9224 8.07087 17.8445 7.99213 17.7666 7.79528C17.7666 7.71654 17.7666 7.6378 17.7666 7.55906C17.7666 5.27559 17.7666 3.03149 17.7666 0.748023C17.7666 0.669283 17.7666 0.590542 17.7666 0.511802C17.8056 0.354321 17.8835 0.236211 18.0783 0.196841C18.1562 0.196841 18.2341 0.157471 18.3121 0.157471C21.2341 0.157471 24.1562 0.157471 27.0783 0.157471C27.4679 0.157471 27.6237 0.275581 27.6237 0.708653C27.6237 2.99212 27.6237 5.27559 27.6237 7.55906C27.6237 7.99213 27.5068 8.11024 27.0783 8.11024C25.6367 8.11024 24.1562 8.11024 22.7146 8.11024Z" fill="#FF0000"/>
</svg>
