<svg width="20" height="20" viewBox="0 0 20 20" fill="none" xmlns="http://www.w3.org/2000/svg">
<path d="M8.33309 15.8332C8.13838 15.8336 7.94968 15.7658 7.79976 15.6416C7.71538 15.5716 7.64562 15.4857 7.5945 15.3887C7.54337 15.2918 7.51187 15.1857 7.50181 15.0766C7.49175 14.9674 7.50332 14.8573 7.53585 14.7527C7.56839 14.648 7.62126 14.5508 7.69142 14.4666L11.4248 9.99991L7.82476 5.52491C7.75554 5.43967 7.70384 5.34159 7.67265 5.23631C7.64146 5.13102 7.63138 5.02061 7.64299 4.91142C7.65461 4.80223 7.68769 4.69642 7.74034 4.60005C7.79298 4.50369 7.86415 4.41868 7.94976 4.34991C8.03598 4.27405 8.13695 4.21682 8.24634 4.18183C8.35572 4.14684 8.47116 4.13484 8.5854 4.14658C8.69965 4.15831 8.81023 4.19354 8.91022 4.25004C9.0102 4.30654 9.09743 4.3831 9.16642 4.47491L13.1914 9.47491C13.314 9.62402 13.381 9.81106 13.381 10.0041C13.381 10.1971 13.314 10.3841 13.1914 10.5332L9.02476 15.5332C8.94116 15.6341 8.83496 15.7138 8.71479 15.7659C8.59462 15.8181 8.46385 15.8411 8.33309 15.8332Z" fill="#212129"/>
</svg>
